<?xml version="1.0" encoding="UTF-8"?>
<svg id="Layer_2" data-name="Layer 2" xmlns="http://www.w3.org/2000/svg" viewBox="0 0 358.81 71.88">
  <defs>
    <style>
      .cls-1 {
        fill: #fc2a51;
      }

      .cls-1, .cls-2 {
        stroke-width: 0px;
      }

      .cls-2 {
        fill: #3a3938;
      }
    </style>
  </defs>
  <g id="Layer_1-2" data-name="Layer 1">
    <g>
      <path class="cls-2" d="m352.69,32.31h-1.25v4.23h-1.4v-4.23h-1.23v-1.02h3.88v1.02Zm4.87,1.5h-.06s-1.02,2.75-1.02,2.75h-.71l-1.07-2.9h-.06v2.9h-1.26v-5.27h1.55l1.16,3.52h.06l1.17-3.52h1.5v5.27h-1.26v-2.75Z"/>
      <path class="cls-2" d="m65.85,1.33h-1.25v4.23h-1.4V1.33h-1.23V.31h3.88v1.02Zm4.87,1.5h-.06s-1.02,2.75-1.02,2.75h-.71l-1.07-2.9h-.06v2.9h-1.26V.31h1.55l1.16,3.52h.06l1.17-3.52h1.5v5.27h-1.26v-2.75Z"/>
    </g>
    <g>
      <g>
        <path class="cls-2" d="m113.12,43c-.15.15-.37.23-.52.23-.19,0-.37-.07-.49-.23l-4.08-4.01c-.11-.11-.3-.23-.49-.23h-6.21c-.37,0-.71.3-.71.71,0,.19.07.37.22.52l6.59,6.4c.11.11.23.3.23.49,0,.26-.19.52-.41.64-1.35.49-2.81.75-4.34.75-3.18,0-6.1-1.2-8.57-3.56-2.4-2.28-3.59-5.28-3.59-8.87s1.16-6.81,3.48-9.21c2.32-2.43,5.28-3.63,8.87-3.63s6.51,1.24,8.91,3.63c2.4,2.43,3.59,5.47,3.59,9.06-.11,2.81-.9,5.24-2.47,7.3m9.02,10.03l-4.64-4.49c-.11-.11-.23-.3-.23-.49s.07-.34.19-.45c2.88-3.41,4.34-7.26,4.34-11.53,0-5.92-2.21-10.78-6.51-14.45-3.59-3.07-7.71-4.6-12.28-4.6-5.02,0-9.4,1.76-13.1,5.28-3.78,3.59-5.73,8.16-5.73,13.55s2.02,10.11,6.03,13.63c3.67,3.22,7.94,4.83,12.69,4.83,3.26,0,6.29-.79,9.02-2.32.19-.11.3-.22.52-.22.19,0,.37.07.49.22l2.06,2.1c.11.11.3.22.49.22h6.03c.37,0,.71-.34.71-.71.15-.23.07-.41-.07-.56"/>
        <path class="cls-2" d="m144.16,50.67c-1.46,2.21-4.38,3.52-8.31,3.52s-6.85-1.31-8.31-3.52c-1.01-1.61-1.5-3.22-1.5-6.07v-12.95c0-.3.26-.56.56-.56h4.61c.3,0,.56.26.56.56v11.91c0,1.05-.04,2.36.26,3.37.49,1.72,2.66,2.32,3.89,2.32s3.37-.6,3.89-2.32c.3-1.01.26-2.32.26-3.37v-11.91c0-.3.26-.56.56-.56h4.61c.3,0,.56.26.56.56v12.95c-.11,2.85-.56,4.46-1.65,6.07"/>
        <path class="cls-2" d="m210.54,53.41l-9.25-12.58,8.83-8.95c.26-.26.15-.79-.37-.79h-6.18c-.26,0-.41,0-.79.41l-6.96,7.6v-21.68c0-.3-.26-.56-.56-.56h-4.68c-.3,0-.56.26-.56.56v36.13c0,.3.26.56.56.56h4.68c.3,0,.56-.26.56-.56v-7.37l1.39-1.42,6.22,8.98c.26.37.41.41.79.41h5.95c.52,0,.71-.34.37-.75"/>
        <path class="cls-2" d="m187.33,33.56c-1.12-1.12-2.88-2.62-5.69-2.47-2.21.11-3.52,1.12-4.42,2.17-.11.15-.19.11-.19,0v-1.61c0-.3-.26-.56-.56-.56h-4.57c-.3,0-.56.26-.56.56v21.98c0,.3.26.56.56.56h4.53c.3,0,.56-.26.56-.56v-10.18c0-5.43,2.51-7.34,4.68-7.15.75.11,1.61.49,1.95,1.01.34.41.56.34.86.04l2.92-2.96c.34-.3.07-.67-.07-.82"/>
        <path class="cls-2" d="m157.53,49.51c-1.27,0-2.7-.67-2.81-2.17-.15-1.35.9-1.98,1.42-2.21,1.27-.75,4.01-1.09,5.43-1.27v4.19c-1.05.97-2.62,1.46-4.04,1.46m.79-18.38c-3.93,0-5.95,1.2-8.09,2.62-.3.19-.34.52-.19.79l2.06,2.92c.15.26.49.34.75.15,1.87-1.27,3.11-1.83,5.47-1.83.97,0,1.83.41,2.36.97.6.64.94,1.68.9,2.58-2.36.3-6.18.79-8.24,1.76-3.07,1.54-4.23,3.74-4.23,5.95,0,4.68,3.93,7.11,7.41,7.11,1.76,0,3.89-.45,5.09-1.57v1.09c0,.3.26.52.6.52h4.49c.3,0,.49-.26.49-.52v-14.11c-.04-7.34-6.18-8.42-8.87-8.42"/>
        <g>
          <path class="cls-2" d="m230.92,36.98l14.71,16.74c.15.15.05.41-.15.41h-2.74c-.2,0-.36-.05-.46-.2l-13.04-15.02-13.04,15.02c-.1.15-.25.2-.41.2h-2.79c-.2,0-.3-.25-.15-.41l14.71-16.79-14.91-16.94c-.15-.15-.05-.41.15-.41h2.79c.2,0,.3.05.46.2l13.24,15.27,13.19-15.27c.15-.15.25-.2.46-.2h2.74c.2,0,.3.25.2.41l-14.96,16.99Z"/>
          <path class="cls-2" d="m261.42,41.7h-10.86v12.07c0,.2-.15.35-.35.35h-1.98c-.2,0-.35-.15-.35-.3V19.94c0-.2.15-.35.35-.35h13.19c6.49,0,11.82,4.57,11.82,11.06s-5.33,11.06-11.82,11.06Zm-.51-19.73h-10.4v17.35h10.4c5.33,0,9.64-3.4,9.64-8.67s-4.31-8.67-9.64-8.67Z"/>
        </g>
        <g>
          <path class="cls-2" d="m288.5,34.95c-.15.1-.3.15-.46.05-.71-.66-2.03-1.67-3.96-1.67-2.69.05-6.39,2.28-6.39,9.59v10.86c0,.2-.15.35-.3.35h-1.88c-.2,0-.35-.15-.35-.3v-22.12c0-.2.15-.36.35-.36h1.83c.2,0,.35.15.35.3v3.04s.05.05.05,0c1.57-2.64,3.91-3.7,6.29-3.8,2.64-.1,4.62,1.22,5.73,2.23.15.15.15.35.05.46l-1.32,1.37Z"/>
          <path class="cls-2" d="m311.3,43.42h-18.97c.15,4.87,3.8,8.78,9.38,8.78,2.99,0,5.23-1.01,6.75-2.08.15-.1.25-.25.41-.05l1.22,1.32c.15.2.1.35,0,.46-2.33,1.72-4.82,2.74-8.52,2.74-7,0-11.97-5.22-11.97-12.12,0-3.45,1.27-6.39,3.3-8.42,1.98-2.08,4.52-3.15,7.91-3.15s6.04,1.42,7.76,3.3c1.88,1.98,2.99,4.72,2.99,8.42v.56c0,.15-.15.25-.25.25Zm-2.38-2.23c-.1-2.54-1.07-4.41-2.43-5.78-1.32-1.37-3.25-2.33-5.73-2.33s-4.31.81-5.78,2.28-2.49,3.45-2.64,5.78h16.59v.05Z"/>
        </g>
        <g>
          <path class="cls-2" d="m321,54.58c-3.96,0-5.83-1.27-7.56-2.64-.1-.1-.15-.35,0-.46l1.22-1.22c.1-.1.3-.15.46,0,1.27,1.06,2.84,2.08,5.78,2.08,3.4,0,5.53-1.32,5.53-4.11,0-2.94-3.86-3.96-6.6-5.12-2.99-1.27-6.54-2.28-6.54-6.34,0-3.7,2.89-5.88,8.07-5.88,2.89,0,5.07.76,6.64,1.83.2.1.15.3.05.46l-1.17,1.27c-.15.1-.3.15-.46.05-1.12-.71-2.74-1.37-5.12-1.37-3.8,0-5.48,1.52-5.48,3.7,0,2.49,2.89,3.3,5.17,4.26,3.3,1.42,7.96,2.59,7.96,7,0,4.16-3.09,6.49-7.96,6.49Z"/>
          <path class="cls-2" d="m338.44,54.58c-3.96,0-5.83-1.27-7.56-2.64-.1-.1-.15-.35,0-.46l1.22-1.22c.1-.1.3-.15.46,0,1.27,1.06,2.84,2.08,5.78,2.08,3.4,0,5.53-1.32,5.53-4.11,0-2.94-3.86-3.96-6.6-5.12-2.99-1.27-6.54-2.28-6.54-6.34,0-3.7,2.89-5.88,8.07-5.88,2.89,0,5.07.76,6.64,1.83.2.1.15.3.05.46l-1.17,1.27c-.15.1-.3.15-.46.05-1.12-.71-2.74-1.37-5.12-1.37-3.8,0-5.48,1.52-5.48,3.7,0,2.49,2.89,3.3,5.17,4.26,3.3,1.42,7.96,2.59,7.96,7,0,4.16-3.09,6.49-7.96,6.49Z"/>
        </g>
      </g>
      <path class="cls-2" d="m35.94,71.88C16.12,71.88,0,55.76,0,35.94S16.12,0,35.94,0s35.94,16.12,35.94,35.94c0,6.13-1.57,12.19-4.55,17.52-.64,1.15-2.09,1.56-3.24.92-1.15-.64-1.56-2.09-.92-3.24,2.58-4.62,3.95-9.87,3.95-15.2,0-17.19-13.99-31.18-31.18-31.18S4.76,18.75,4.76,35.94s13.99,31.18,31.18,31.18c4.39,0,8.64-.89,12.62-2.66,1.2-.53,2.61.01,3.14,1.21.53,1.2-.01,2.61-1.21,3.14-4.59,2.03-9.48,3.06-14.54,3.06Z"/>
      <path class="cls-1" d="m61.38,60.29c0,1.78-1.44,3.23-3.23,3.23s-3.23-1.45-3.23-3.23,1.44-3.23,3.23-3.23,3.23,1.45,3.23,3.23"/>
      <path class="cls-1" d="m31.1,41.39c-.08.08-.21.13-.3.13-.11,0-.21-.04-.27-.13l-2.3-2.26c-.06-.06-.17-.13-.27-.13h-3.5c-.21,0-.4.17-.4.4,0,.1.04.21.13.3l3.72,3.61c.06.06.13.17.13.27,0,.15-.1.3-.23.36-.76.27-1.58.42-2.45.42-1.79,0-3.44-.68-4.83-2-1.35-1.29-2.03-2.98-2.03-5s.65-3.84,1.96-5.19c1.31-1.37,2.98-2.05,5-2.05s3.67.7,5.02,2.05c1.35,1.37,2.03,3.08,2.03,5.11-.06,1.58-.51,2.95-1.39,4.12m5.09,5.66l-2.62-2.53c-.06-.06-.13-.17-.13-.27s.04-.19.11-.25c1.62-1.92,2.45-4.09,2.45-6.5,0-3.33-1.24-6.08-3.67-8.15-2.03-1.73-4.35-2.6-6.92-2.6-2.83,0-5.3.99-7.39,2.98-2.13,2.03-3.23,4.6-3.23,7.64s1.14,5.7,3.4,7.68c2.07,1.82,4.47,2.72,7.15,2.72,1.84,0,3.55-.44,5.09-1.31.11-.06.17-.13.3-.13.11,0,.21.04.27.13l1.16,1.18c.06.06.17.13.27.13h3.4c.21,0,.4-.19.4-.4.08-.13.04-.23-.04-.32"/>
      <path class="cls-1" d="m57,47.29l-8-9.66,7.91-9.84c.12-.18.18-.51-.15-.51h-3.88c-.21,0-.45.15-.66.42l-5.42,7.13-5.35-7.13c-.21-.3-.45-.42-.66-.42h-3.88c-.33,0-.27.33-.12.48l7.91,9.87-8,9.63c-.12.15-.18.51.12.51h3.91c.21,0,.45-.15.66-.42l5.47-7.04,5.45,7.04c.21.3.45.42.66.42h3.88c.33,0,.27-.33.15-.48"/>
    </g>
  </g>
</svg>