<svg xmlns="http://www.w3.org/2000/svg" version="1.1" xmlns:xlink="http://www.w3.org/1999/xlink" viewBox="0 0 200 200"><rect width="200" height="200" fill="url('#gradient')"></rect><defs><linearGradient id="gradient" gradientTransform="rotate(93 0.5 0.5)"><stop offset="0%" stop-color="#ff9100"></stop><stop offset="100%" stop-color="#ff9100"></stop></linearGradient></defs><g><g fill="#000000" transform="matrix(1.6979465921141426,0,0,1.6979465921141426,11.776686236204007,109.37861625829888)" stroke="#ffffff" stroke-width="0.35"><path d="M4.73-14.22L4.73 0L1.31 0L1.31-14.22L4.73-14.22ZM11.43-2.34L11.43-2.34Q12.12-2.34 12.50-2.72Q12.88-3.10 12.87-3.77L12.87-3.77L15.96-3.77Q15.96-2.03 14.71-0.92Q13.47 0.20 11.50 0.20L11.50 0.20Q9.20 0.20 7.87-1.25Q6.54-2.70 6.54-5.25L6.54-5.25L6.54-5.39Q6.54-6.99 7.13-8.22Q7.72-9.44 8.84-10.10Q9.95-10.76 11.47-10.76L11.47-10.76Q13.54-10.76 14.75-9.62Q15.96-8.48 15.96-6.52L15.96-6.52L12.87-6.52Q12.87-7.34 12.47-7.78Q12.07-8.22 11.40-8.22L11.40-8.22Q10.12-8.22 9.90-6.59L9.90-6.59Q9.83-6.07 9.83-5.17L9.83-5.17Q9.83-3.57 10.21-2.96Q10.60-2.34 11.43-2.34ZM16.94-4.82L16.93-5.38Q16.93-6.96 17.55-8.20Q18.16-9.43 19.32-10.10Q20.47-10.76 22.02-10.76L22.02-10.76Q24.39-10.76 25.76-9.29Q27.13-7.82 27.13-5.29L27.13-5.29L27.13-5.18Q27.13-2.71 25.76-1.25Q24.38 0.20 22.04 0.20L22.04 0.20Q19.79 0.20 18.42-1.16Q17.05-2.51 16.94-4.82L16.94-4.82ZM20.23-5.77L20.22-5.18Q20.22-3.71 20.68-3.03Q21.14-2.34 22.04-2.34L22.04-2.34Q23.80-2.34 23.84-5.05L23.84-5.05L23.84-5.38Q23.84-8.22 22.02-8.22L22.02-8.22Q20.37-8.22 20.23-5.77L20.23-5.77ZM28.52-10.57L31.60-10.57L31.71-9.33Q32.80-10.76 34.73-10.76L34.73-10.76Q36.38-10.76 37.19-9.78Q38.01-8.79 38.04-6.81L38.04-6.81L38.04 0L34.74 0L34.74-6.67Q34.74-7.47 34.41-7.85Q34.09-8.22 33.24-8.22L33.24-8.22Q32.28-8.22 31.81-7.46L31.81-7.46L31.81 0L28.52 0L28.52-10.57ZM39.45-4.82L39.44-5.38Q39.44-6.96 40.06-8.20Q40.67-9.43 41.83-10.10Q42.98-10.76 44.53-10.76L44.53-10.76Q46.90-10.76 48.27-9.29Q49.64-7.82 49.64-5.29L49.64-5.29L49.64-5.18Q49.64-2.71 48.27-1.25Q46.89 0.20 44.55 0.20L44.55 0.20Q42.29 0.20 40.93-1.16Q39.56-2.51 39.45-4.82L39.45-4.82ZM42.74-5.77L42.73-5.18Q42.73-3.71 43.19-3.03Q43.65-2.34 44.55-2.34L44.55-2.34Q46.31-2.34 46.35-5.05L46.35-5.05L46.35-5.38Q46.35-8.22 44.53-8.22L44.53-8.22Q42.88-8.22 42.74-5.77L42.74-5.77ZM50.70-5.24L50.70-5.36Q50.70-6.96 51.23-8.19Q51.76-9.42 52.74-10.09Q53.73-10.76 55.04-10.76L55.04-10.76Q56.69-10.76 57.62-9.65L57.62-9.65L57.73-10.57L60.72-10.57L60.72-0.40Q60.72 1.00 60.07 2.03Q59.42 3.06 58.19 3.61Q56.96 4.16 55.34 4.16L55.34 4.16Q54.18 4.16 53.09 3.72Q52.00 3.28 51.43 2.58L51.43 2.58L52.80 0.64Q53.72 1.73 55.22 1.73L55.22 1.73Q57.41 1.73 57.41-0.52L57.41-0.52L57.41-0.85Q56.46 0.20 55.02 0.20L55.02 0.20Q53.09 0.20 51.89-1.28Q50.70-2.76 50.70-5.24L50.70-5.24ZM54.00-5.16L54.00-5.16Q54.00-3.86 54.49-3.10Q54.98-2.34 55.86-2.34L55.86-2.34Q56.92-2.34 57.41-3.06L57.41-3.06L57.41-7.50Q56.93-8.22 55.88-8.22L55.88-8.22Q55-8.22 54.50-7.44Q54.00-6.65 54.00-5.16ZM69.04-10.64L68.98-7.59L67.90-7.67Q66.35-7.67 65.91-6.69L65.91-6.69L65.91 0L62.62 0L62.62-10.57L65.70-10.57L65.81-9.21Q66.64-10.76 68.13-10.76L68.13-10.76Q68.65-10.76 69.04-10.64L69.04-10.64ZM79.12 0L75.83 0Q75.65-0.32 75.52-0.95L75.52-0.95Q74.61 0.20 72.98 0.20L72.98 0.20Q71.48 0.20 70.44-0.71Q69.39-1.61 69.39-2.98L69.39-2.98Q69.39-4.70 70.66-5.58Q71.93-6.46 74.36-6.46L74.36-6.46L75.37-6.46L75.37-7.01Q75.37-8.47 74.11-8.47L74.11-8.47Q72.94-8.47 72.94-7.31L72.94-7.31L69.65-7.31Q69.65-8.85 70.95-9.80Q72.26-10.76 74.28-10.76Q76.30-10.76 77.47-9.78Q78.64-8.79 78.67-7.07L78.67-7.07L78.67-2.39Q78.69-0.94 79.12-0.17L79.12-0.17L79.12 0ZM73.77-2.15L73.77-2.15Q74.38-2.15 74.79-2.41Q75.20-2.68 75.37-3.01L75.37-3.01L75.37-4.70L74.41-4.70Q72.70-4.70 72.70-3.15L72.70-3.15Q72.70-2.71 73.00-2.43Q73.30-2.15 73.77-2.15ZM84.52 0L81.22 0L81.22-8.28L79.69-8.28L79.69-10.57L81.22-10.57L81.22-11.41Q81.22-13.21 82.29-14.21Q83.35-15.21 85.27-15.21L85.27-15.21Q85.98-15.21 86.82-15L86.82-15L86.83-12.58Q86.52-12.67 86.02-12.67L86.02-12.67Q84.52-12.67 84.52-11.38L84.52-11.38L84.52-10.57L86.58-10.57L86.58-8.28L84.52-8.28L84.52 0ZM91.21-10.57L91.21 0L87.91 0L87.91-10.57L91.21-10.57ZM87.71-13.29L87.71-13.29Q87.71-13.99 88.22-14.44Q88.73-14.89 89.54-14.89Q90.35-14.89 90.86-14.44Q91.37-13.99 91.37-13.29Q91.37-12.59 90.86-12.14Q90.35-11.69 89.54-11.69Q88.73-11.69 88.22-12.14Q87.71-12.59 87.71-13.29ZM96.04-10.57L97.52-7.66L99.05-10.57L102.47-10.57L99.69-5.42L102.61 0L99.17 0L97.51-3.13L95.88 0L92.42 0L95.35-5.42L92.58-10.57L96.04-10.57Z"></path></g></g></svg>